<?xml version="1.0" encoding="UTF-8"?>
<svg id="Layer_1" data-name="Layer 1" xmlns="http://www.w3.org/2000/svg" viewBox="0 0 580.12 167.2">
  <defs>
    <style>
      .cls-1, .cls-2 {
        fill: #e8a600;
      }

      .cls-3 {
        fill: #041a2a;
      }

      .cls-2 {
        stroke: #041a2a;
        stroke-width: 7px;
      }
    </style>
  </defs>
  <path class="cls-3" d="M197.33,139.6l76.5,1.7,9.8-13.2c6.6-9,15-11.9,21.5-7.6l-13.6,36.6h-159.4c-2.3-5.9-.2-13.9,14.3-17.1l11.5-2.4,11-40h-58.5l-42.1,39.3,22.2,6.1c3,8.8-4.2,13.9-18,13.9l-33-.2c-11.2,0-21.3,0-30.9.2-3-8.8,3.5-14.9,14.3-18.3l11.5-3.7L174.63,10.3h144.1l-6.1,30.7c-2.1,10.2-7,14.1-15.2,13.4l-4-26.3-67.4-1.2-14.3,55.1h42.8c4.4-13.7,14.3-19.3,24.1-14.4l-8.2,33.6c-2.1,8.5-10.1,15.8-22.5,11.5l3.3-14.9h-43.3l-10.8,41.7.2.1ZM207.13,134l7.7-30.2h27.6l-2.8,13.4c19.7,9.5,34.9-.5,38.4-14.9l8.9-37.1c-10.3-9.7-29.7-8-37.2,11h-28.3l11-43.2,54.3.7,4.2,26.6c16.1,4.4,26.7-4.1,29.5-19.5l7-37.3h-156.3L29.33,128.8l-10.5,3.4c-16.6,5.4-22.7,18.8-16.4,31.5,3.7-.5,23.6-.5,37.7-.5l33.5.2c22,.2,28.5-11.7,23.6-25.6l-14.7-3.9,32.3-30.5h44.5l-8.2,29-9.1,1.9c-19.7,4.1-21.1,20-15.9,29h171.8l15.7-45.6c-10.5-10-25-7.1-34.4,4.9l-9.6,12.4-62.2-1.2M126.63,82h46.1l14.3-54.1s-60.4,54.1-60.4,54.1ZM143.93,76.2l30.9-29.5-8.7,29.5h-22.2Z"/>
  <g>
    <path class="cls-1" d="M174.43,10.5L34.23,135.1l-11.5,3.7c-10.8,3.4-17.3,9.5-14.3,18.3,9.6-.2,19.7-.2,30.9-.2l33,.2c13.8,0,21.1-5.1,18-13.9l-22.2-6.1,42.1-39.3h58.5l-11,40-11.5,2.4c-14.5,3.2-16.6,11.2-14.3,17.1h159.4l13.6-36.6c-6.5-4.4-15-1.5-21.5,7.6l-9.8,13.2-76.5-1.7,10.8-41.7h43.3l-3.3,14.9c12.4,4.4,20.4-2.9,22.5-11.5l8.2-33.6c-9.8-4.9-19.7.7-24.1,14.4h-42.8l14.3-55.1,67.4,1.2,4,26.3c8.2.7,13.1-3.2,15.2-13.4l6.1-30.7h-144.1l-.2-.1ZM165.73,76.4h-22.2l30.9-29.5-8.7,29.5Z"/>
    <path d="M125.83,82.2h46.1l14.3-54.1-60.4,54.1ZM165.73,76.3h-22.2l30.9-29.5-8.7,29.5Z"/>
  </g>
  <g>
    <path class="cls-2" d="M356.01,162.99c-19.94,0-27.29-8.54-27.29-15.9,0-3.32,1.42-6.88,2.37-8.07,7.59,2.85,17.8,4.51,25.63,4.51,23.5,0,36.08-14.48,42.48-37.97-2.85.71-8.54,1.66-14.71,1.66-31.57,0-52.45-14.95-52.45-46.28,0-35.84,23.73-57.43,58.15-57.43,36.31,0,53.64,25.39,53.64,61.23,0,61-32.99,98.26-87.81,98.26ZM382.83,25.81c-8.78,0-14.24,6.88-14.24,22.78,0,25.87,12.34,39.87,34.41,41.53.95-6.17,1.42-12.82,1.42-19.7,0-30.14-9.73-44.62-21.6-44.62Z"/>
    <path class="cls-2" d="M550.85,119.32l.24,13.29c.47,24.45-10.44,31.09-24.68,31.09-5.69,0-11.15-1.42-16.61-4.27l.48-41.3h-51.5l-9.26-17.56c13.05-27.06,48.65-77.61,69.3-96.6l29.9,6.17,1.66,84.49c7.12,0,17.8-.71,23.73-2.37,6.65,9.26.48,28.72-23.26,27.06ZM473.96,96.06h37.26l1.66-58.86c-10.44,10.92-30.85,41.3-38.92,58.86Z"/>
  </g>
</svg>