<svg width="50" height="24" viewBox="0 0 50 24" fill="none" xmlns="http://www.w3.org/2000/svg">
<path d="M29.5524 19.6861L41.0098 19.9326L42.481 18.0279C43.4625 16.7224 44.724 16.299 45.7043 16.9347L43.6721 22.2265H19.8108C19.4606 21.3797 19.7757 20.2157 21.9484 19.7569L23.6655 19.4043L25.3123 13.6183H16.5523L10.2461 19.2981L13.5749 20.1803C14.0306 21.4505 12.9448 22.1911 10.8775 22.1911L5.93701 22.1558C4.25505 22.1558 2.74878 22.1558 1.31162 22.1911C0.855992 20.9209 1.83753 20.0388 3.44921 19.5458L5.1663 19.0163L26.1545 0.988317H47.7377L46.8264 5.43338C46.5113 6.91468 45.7746 7.4796 44.5483 7.37346L43.9533 3.56289L33.8627 3.38717L31.7251 11.3609H38.1367C38.802 9.38547 40.2743 8.57406 41.7454 9.27933L40.5191 14.1478C40.204 15.3826 39.0128 16.4405 37.1551 15.806L37.6459 13.6536H31.164L29.5524 19.6861ZM31.0247 18.8747L32.1807 14.5004H36.3153L35.8948 16.4405C38.8383 17.8168 41.1152 16.3697 41.6411 14.2881L42.9729 8.92552C41.4315 7.51498 38.5232 7.76147 37.4023 10.513H33.1622L34.8091 4.26816L42.9378 4.3743L43.5679 8.22025C45.9854 8.85593 47.562 7.62113 47.9825 5.398L49.0331 0H25.6274L4.3956 18.1341L2.81906 18.6282C0.331259 19.4043 -0.579997 21.3443 0.366397 23.1794C0.92744 23.1087 3.90484 23.1087 6.00728 23.1087L11.018 23.1441C14.3117 23.1795 15.292 21.4505 14.5565 19.4397L12.3486 18.8747L17.1836 14.465H23.8412L22.6149 18.6636L21.248 18.9455C18.3046 19.5458 18.0949 21.8385 18.8656 23.1441H44.5834L46.9306 16.5466C45.3541 15.1007 43.1814 15.5241 41.7805 17.2519L40.3434 19.0516L31.0235 18.8759M18.971 11.3609H25.8734L28.011 3.52869L18.971 11.3609ZM21.5642 10.5141L26.1896 6.24479L24.893 10.5141H21.5642Z" fill="#231F20"/>
</svg>
